<mxfile host="app.diagrams.net" modified="2024-06-14T10:52:13.948Z" agent="Mozilla/5.0 (X11; Linux x86_64) AppleWebKit/537.36 (KHTML, like Gecko) Chrome/125.0.0.0 Safari/537.36" version="24.5.4" etag="7i4nP6QlSGKLkzeydMbM" type="github">
  <diagram name="Page-1" id="Qh6oCEYd5ZA_zpNJLA7l">
    <mxGraphModel>
      <root>
        <mxCell id="0" />
        <mxCell id="1" parent="0" />
      </root>
    </mxGraphModel>
  </diagram>
</mxfile>
